<svg width="760" height="640" viewBox="0 0 760 640" fill="none" xmlns="http://www.w3.org/2000/svg">
  <rect width="760" height="640" rx="30" fill="url(#bg)"/>
  <g opacity="0.22" fill="#D8C3FF">
    <rect x="34" y="54" width="300" height="170" rx="72"/>
    <rect x="408" y="52" width="310" height="186" rx="74"/>
    <rect x="18" y="278" width="286" height="218" rx="92"/>
    <rect x="336" y="284" width="398" height="220" rx="96"/>
    <rect x="72" y="468" width="338" height="136" rx="68"/>
  </g>

  <rect x="112" y="202" width="536" height="384" rx="22" fill="url(#panel)" stroke="rgba(255,255,255,0.28)" stroke-width="2"/>

  <g stroke="#1A1533" stroke-width="3" stroke-linecap="round" stroke-linejoin="round">
    <rect x="300" y="356" width="180" height="196" rx="14" fill="#F6F5FB"/>
    <rect x="322" y="391" width="124" height="13" rx="6" fill="#D7CDEC" stroke="none"/>
    <rect x="322" y="415" width="98" height="10" rx="5" fill="#D7CDEC" stroke="none"/>
    <rect x="322" y="436" width="122" height="10" rx="5" fill="#D7CDEC" stroke="none"/>
    <rect x="322" y="457" width="98" height="10" rx="5" fill="#D7CDEC" stroke="none"/>
    <rect x="322" y="478" width="124" height="10" rx="5" fill="#D7CDEC" stroke="none"/>

    <circle cx="270" cy="344" r="22" fill="#F6F5FB"/>
    <path d="M236 382C236 360 254 342 276 342C298 342 316 360 316 382V414H236V382Z" fill="#F6F5FB"/>
    <path d="M238 414H296L276 482H220L238 414Z" fill="#F6F5FB"/>
    <rect x="206" y="476" width="24" height="88" rx="8" fill="#F6F5FB"/>
    <rect x="242" y="476" width="24" height="90" rx="8" fill="#F6F5FB"/>
    <rect x="198" y="562" width="38" height="16" rx="6" fill="#1A1533"/>
    <rect x="236" y="565" width="38" height="16" rx="6" fill="#1A1533"/>
    <path d="M209 454L189 439"/>

    <circle cx="430" cy="334" r="23" fill="#F6F5FB"/>
    <path d="M396 370C396 348 413 331 435 331C457 331 474 348 474 370V402H396V370Z" fill="#F6F5FB"/>
    <path d="M396 402H476L528 478H452L396 402Z" fill="#F6F5FB"/>
    <path d="M446 403L474 333"/>
    <rect x="462" y="458" width="34" height="98" rx="8" fill="#1A1533"/>
    <rect x="520" y="474" width="34" height="84" rx="8" transform="rotate(24 520 474)" fill="#1A1533"/>

    <circle cx="362" cy="378" r="22" fill="#F6F5FB"/>
    <rect x="352" y="368" width="20" height="24" rx="7" fill="#8259E6" stroke="none"/>
  </g>

  <defs>
    <linearGradient id="bg" x1="42" y1="12" x2="738" y2="628" gradientUnits="userSpaceOnUse">
      <stop stop-color="#8F5EF0"/>
      <stop offset="1" stop-color="#7D4BE3"/>
    </linearGradient>
    <linearGradient id="panel" x1="112" y1="202" x2="648" y2="586" gradientUnits="userSpaceOnUse">
      <stop stop-color="rgba(255,255,255,0.12)"/>
      <stop offset="1" stop-color="rgba(255,255,255,0.06)"/>
    </linearGradient>
  </defs>
</svg>
